<?xml version="1.0" encoding="UTF-8"?>
<svg id="Layer_1" xmlns="http://www.w3.org/2000/svg" viewBox="0 0 137.39 179">
  <defs>
    <style>
      .cls-1 {
        fill: #4d122c;
      }
    </style>
  </defs>
  <path class="cls-1" d="M68.69,137.86c39.95,0,68.69-29.69,68.69-68.93S108.64,0,68.69,0,0,29.69,0,68.93s28.75,68.93,68.69,68.93ZM68.69,26.09c24.73,0,41.22,18.24,41.22,42.84s-16.49,42.84-41.22,42.84-41.22-18.45-41.22-42.84,16.49-42.84,41.22-42.84Z"/>
  <path class="cls-1" d="M122.17,153.55H15.22c-7.4,0-13.1,5.09-13.1,12.72s5.71,12.73,13.1,12.73h106.95c7.4,0,13.1-5.09,13.1-12.73s-5.71-12.72-13.1-12.72Z"/>
</svg>